<svg xmlns="http://www.w3.org/2000/svg" xmlns:xlink="http://www.w3.org/1999/xlink" width="500" zoomAndPan="magnify" viewBox="0 0 375 374.999991" height="500" preserveAspectRatio="xMidYMid meet" version="1.0"><defs><clipPath id="ff94a83b72"><path d="M 67 7.707031 L 307 7.707031 L 307 366.957031 L 67 366.957031 Z M 67 7.707031 " clip-rule="nonzero"/></clipPath><clipPath id="9b482dd3f3"><path d="M 306 107 L 366.957031 107 L 366.957031 148 L 306 148 Z M 306 107 " clip-rule="nonzero"/></clipPath><clipPath id="76b20a3dab"><path d="M 7.707031 107 L 68 107 L 68 148 L 7.707031 148 Z M 7.707031 107 " clip-rule="nonzero"/></clipPath></defs><path fill="#4d5b9e" d="M 144.308594 287.285156 C 144.308594 292.761719 148.761719 297.214844 154.238281 297.214844 L 220.429688 297.214844 C 225.902344 297.214844 230.359375 292.761719 230.359375 287.285156 L 230.359375 269.082031 L 144.308594 269.082031 L 144.308594 287.285156 " fill-opacity="1" fill-rule="nonzero"/><path fill="#4d5b9e" d="M 164.164062 327.003906 C 164.164062 332.476562 168.617188 336.933594 174.09375 336.933594 L 200.570312 336.933594 C 206.046875 336.933594 210.5 332.476562 210.5 327.003906 L 210.5 317.074219 L 164.164062 317.074219 L 164.164062 327.003906 " fill-opacity="1" fill-rule="nonzero"/><path fill="#4d5b9e" d="M 202.375 126.332031 C 200.839844 127.234375 197.261719 129.785156 197.261719 134.007812 L 197.261719 140.335938 C 197.261719 145.820312 192.820312 150.261719 187.332031 150.261719 C 181.84375 150.261719 177.402344 145.820312 177.402344 140.335938 L 177.402344 134.007812 C 177.402344 123.953125 182.984375 114.675781 192.339844 109.203125 C 195.375 107.417969 197.261719 104.128906 197.261719 100.617188 C 197.261719 95.144531 192.808594 90.6875 187.332031 90.6875 C 181.855469 90.6875 177.402344 95.144531 177.402344 100.617188 C 177.402344 106.101562 172.960938 110.546875 167.472656 110.546875 C 161.988281 110.546875 157.546875 106.101562 157.546875 100.617188 C 157.546875 84.195312 170.90625 70.832031 187.332031 70.832031 C 203.757812 70.832031 217.121094 84.195312 217.121094 100.617188 C 217.121094 111.152344 211.46875 121.003906 202.375 126.332031 Z M 187.332031 189.980469 C 181.84375 189.980469 177.402344 185.535156 177.402344 180.050781 C 177.402344 174.566406 181.84375 170.121094 187.332031 170.121094 C 192.820312 170.121094 197.261719 174.566406 197.261719 180.050781 C 197.261719 185.535156 192.820312 189.980469 187.332031 189.980469 Z M 187.332031 37.734375 C 138.058594 37.734375 97.96875 77.824219 97.96875 127.097656 C 97.96875 147.613281 104.761719 166.90625 117.613281 182.882812 C 132.851562 201.835938 142.019531 225.332031 143.929688 249.886719 L 230.738281 249.886719 C 232.644531 225.332031 241.816406 201.835938 257.058594 182.882812 C 269.902344 166.90625 276.695312 147.613281 276.695312 127.097656 C 276.695312 77.824219 236.605469 37.734375 187.332031 37.734375 " fill-opacity="1" fill-rule="nonzero"/><g clip-path="url(#ff94a83b72)"><path fill="#4d5b9e" d="M 272.535156 195.332031 C 258.144531 213.222656 250.21875 236.007812 250.21875 259.484375 L 250.21875 287.285156 C 250.21875 300.234375 241.917969 311.269531 230.359375 315.367188 L 230.359375 327.003906 C 230.359375 343.425781 216.996094 356.789062 200.570312 356.789062 L 174.09375 356.789062 C 157.667969 356.789062 144.308594 343.425781 144.308594 327.003906 L 144.308594 315.367188 C 132.75 311.269531 124.445312 300.234375 124.445312 287.285156 L 124.445312 259.484375 C 124.445312 236.007812 116.519531 213.222656 102.132812 195.332031 C 86.640625 176.0625 78.113281 151.828125 78.113281 127.097656 C 78.113281 66.875 127.109375 17.875 187.332031 17.875 C 247.554688 17.875 296.554688 66.875 296.554688 127.097656 C 296.554688 151.828125 288.023438 176.0625 272.535156 195.332031 Z M 187.332031 7.707031 C 121.503906 7.707031 67.945312 61.265625 67.945312 127.097656 C 67.945312 154.144531 77.269531 180.636719 94.210938 201.703125 C 107.152344 217.796875 114.28125 238.316406 114.28125 259.484375 L 114.28125 287.285156 C 114.28125 301.644531 122.023438 314.742188 134.136719 321.808594 L 134.136719 327.003906 C 134.136719 349.03125 152.0625 366.957031 174.09375 366.957031 L 200.570312 366.957031 C 222.601562 366.957031 240.527344 349.03125 240.527344 327.003906 L 240.527344 321.808594 C 252.640625 314.742188 260.382812 301.644531 260.382812 287.285156 L 260.382812 259.484375 C 260.382812 238.316406 267.511719 217.796875 280.453125 201.695312 C 297.394531 180.632812 306.722656 154.136719 306.722656 127.097656 C 306.722656 61.265625 253.164062 7.707031 187.332031 7.707031 " fill-opacity="1" fill-rule="nonzero"/></g><g clip-path="url(#9b482dd3f3)"><path fill="#4d5b9e" d="M 346.863281 137.023438 L 327.003906 137.023438 C 321.519531 137.023438 317.074219 132.582031 317.074219 127.097656 C 317.074219 121.609375 321.519531 117.167969 327.003906 117.167969 L 346.863281 117.167969 C 352.347656 117.167969 356.789062 121.609375 356.789062 127.097656 C 356.789062 132.582031 352.347656 137.023438 346.863281 137.023438 Z M 346.863281 107 L 327.003906 107 C 315.921875 107 306.90625 116.015625 306.90625 127.097656 C 306.90625 138.175781 315.921875 147.191406 327.003906 147.191406 L 346.863281 147.191406 C 357.941406 147.191406 366.957031 138.175781 366.957031 127.097656 C 366.957031 116.015625 357.941406 107 346.863281 107 " fill-opacity="1" fill-rule="nonzero"/></g><g clip-path="url(#76b20a3dab)"><path fill="#4d5b9e" d="M 17.875 127.097656 C 17.875 121.609375 22.320312 117.167969 27.804688 117.167969 L 47.664062 117.167969 C 53.148438 117.167969 57.59375 121.609375 57.59375 127.097656 C 57.59375 132.582031 53.148438 137.023438 47.664062 137.023438 L 27.804688 137.023438 C 22.320312 137.023438 17.875 132.582031 17.875 127.097656 Z M 47.664062 147.191406 C 58.742188 147.191406 67.757812 138.175781 67.757812 127.097656 C 67.757812 116.015625 58.742188 107 47.664062 107 L 27.804688 107 C 16.722656 107 7.707031 116.015625 7.707031 127.097656 C 7.707031 138.175781 16.722656 147.191406 27.804688 147.191406 L 47.664062 147.191406 " fill-opacity="1" fill-rule="nonzero"/></g><path fill="#4d5b9e" d="M 315.222656 70.21875 L 333.882812 63.429688 C 339.039062 61.554688 344.734375 64.210938 346.609375 69.367188 C 348.484375 74.515625 345.828125 80.214844 340.675781 82.089844 L 322.015625 88.882812 C 316.863281 90.757812 311.164062 88.097656 309.289062 82.949219 C 307.414062 77.796875 310.070312 72.09375 315.222656 70.21875 Z M 318.617188 99.652344 C 320.964844 99.652344 323.273438 99.242188 325.488281 98.4375 L 344.160156 91.644531 C 354.566406 87.855469 359.945312 76.300781 356.167969 65.890625 C 353.289062 57.972656 345.695312 52.660156 337.277344 52.660156 C 334.933594 52.660156 332.625 53.070312 330.414062 53.871094 L 311.746094 60.667969 C 301.332031 64.453125 295.945312 76.007812 299.730469 86.421875 C 302.609375 94.332031 310.195312 99.652344 318.617188 99.652344 " fill-opacity="1" fill-rule="nonzero"/><path fill="#4d5b9e" d="M 59.441406 183.96875 L 40.78125 190.761719 C 35.625 192.640625 29.929688 189.980469 28.054688 184.828125 C 26.179688 179.675781 28.835938 173.976562 33.988281 172.101562 L 52.648438 165.308594 C 57.800781 163.433594 63.5 166.09375 65.375 171.242188 C 67.25 176.394531 64.59375 182.09375 59.441406 183.96875 Z M 56.046875 154.539062 C 53.695312 154.539062 51.382812 154.949219 49.171875 155.753906 L 30.511719 162.546875 C 25.46875 164.382812 21.441406 168.074219 19.171875 172.941406 C 16.902344 177.804688 16.664062 183.261719 18.503906 188.304688 C 21.382812 196.214844 28.972656 201.53125 37.382812 201.53125 C 39.730469 201.53125 42.046875 201.121094 44.261719 200.3125 L 62.917969 193.527344 C 67.960938 191.6875 71.988281 188 74.257812 183.132812 C 76.527344 178.265625 76.769531 172.808594 74.933594 167.765625 C 72.046875 159.855469 64.457031 154.539062 56.046875 154.539062 " fill-opacity="1" fill-rule="nonzero"/><path fill="#4d5b9e" d="M 346.609375 184.828125 C 344.734375 189.980469 339.039062 192.640625 333.882812 190.761719 L 315.226562 183.96875 C 310.070312 182.09375 307.414062 176.394531 309.289062 171.242188 C 311.164062 166.09375 316.863281 163.433594 322.019531 165.308594 L 340.675781 172.101562 C 345.828125 173.976562 348.488281 179.675781 346.609375 184.828125 Z M 344.152344 162.546875 L 325.492188 155.753906 C 323.285156 154.949219 320.964844 154.539062 318.621094 154.539062 C 310.203125 154.539062 302.609375 159.859375 299.730469 167.765625 C 297.898438 172.8125 298.140625 178.269531 300.40625 183.132812 C 302.675781 188 306.707031 191.695312 311.75 193.519531 L 330.398438 200.3125 C 332.617188 201.121094 334.933594 201.53125 337.28125 201.53125 C 345.703125 201.53125 353.289062 196.214844 356.160156 188.3125 C 358 183.265625 357.761719 177.808594 355.492188 172.941406 C 353.230469 168.078125 349.203125 164.386719 344.152344 162.546875 " fill-opacity="1" fill-rule="nonzero"/><path fill="#4d5b9e" d="M 28.054688 69.367188 C 29.929688 64.210938 35.625 61.554688 40.78125 63.429688 L 59.441406 70.222656 C 64.59375 72.09375 67.25 77.796875 65.375 82.949219 C 63.5 88.105469 57.800781 90.757812 52.648438 88.882812 L 33.988281 82.089844 C 28.835938 80.214844 26.179688 74.515625 28.054688 69.367188 Z M 30.511719 91.644531 L 49.167969 98.4375 C 51.382812 99.242188 53.695312 99.652344 56.042969 99.652344 C 56.046875 99.652344 56.046875 99.652344 56.046875 99.652344 C 64.464844 99.652344 72.050781 94.335938 74.933594 86.425781 C 76.769531 81.378906 76.527344 75.917969 74.257812 71.050781 C 71.984375 66.183594 67.953125 62.496094 62.917969 60.675781 L 44.246094 53.867188 C 42.035156 53.070312 39.730469 52.660156 37.386719 52.660156 C 28.972656 52.660156 21.382812 57.972656 18.503906 65.878906 C 16.664062 70.925781 16.898438 76.390625 19.171875 81.253906 C 21.441406 86.121094 25.46875 89.808594 30.511719 91.644531 " fill-opacity="1" fill-rule="nonzero"/></svg>